<svg xmlns="http://www.w3.org/2000/svg" width="32.146" height="29.224" viewBox="0 0 32.146 29.224">
  <path id="Icon_material-live-tv" data-name="Icon material-live-tv" d="M30.724,8.845H19.633l4.807-4.807L23.418,3,17.573,8.845,11.728,3,10.691,4.037l4.822,4.807H4.422A2.922,2.922,0,0,0,1.5,11.767V29.3a2.931,2.931,0,0,0,2.922,2.922h26.3A2.931,2.931,0,0,0,33.646,29.3V11.767A2.922,2.922,0,0,0,30.724,8.845Zm0,20.457H4.422V11.767h26.3ZM13.19,14.69v11.69l10.228-5.845Z" transform="translate(-1.5 -3)" fill="#fff"/>
</svg>
